<svg width="193" height="302" viewBox="0 0 193 302" fill="none" xmlns="http://www.w3.org/2000/svg">
<path d="M178.383 196.647H117.354V293.482H178.383V196.647Z" fill="#B2B2B2"/>
<path d="M117.592 196.647H56.5635V293.482H117.592V196.647Z" fill="#D1D1D1"/>
<path d="M85.6182 79.2165L83.0166 131.269L70.783 169.439H92.8073L104.247 136.551L107.821 99.1754L85.6182 79.2165Z" fill="#F7EBE7"/>
<path d="M85.0025 261.151L89.4312 281.785L74.5563 283.552L70.3262 263.236L85.0025 261.151Z" fill="#FCC9A7"/>
<path d="M90.3249 279.918C89.9476 278.806 88.756 278.409 87.9418 279.124C86.353 280.534 83.4932 282.261 79.2631 281.844C74.8741 281.407 73.2258 278.826 72.5903 276.959C72.2527 275.986 71.3193 275.489 70.4852 275.906L43.8534 289.292C42.2448 290.106 40.9737 291.615 40.3382 293.502C39.7424 295.27 40.934 297.176 42.6022 297.136L88.617 295.865C90.4243 295.826 91.8144 294.038 91.6555 291.973L90.9008 281.844C90.881 281.685 90.8611 281.507 90.8015 281.348L90.3249 279.918Z" fill="#1F252A"/>
<path d="M84.7443 161.376H50.2084C50.2084 161.376 29.177 160.204 27.9259 177.462C26.6747 194.72 58.7679 244.091 63.7924 270.465L92.6683 268.082L71.8753 196.369L123.59 196.666C127.423 196.686 131.236 196.13 134.85 194.879C144.919 191.384 160.29 186.379 151.91 158.655L84.7443 161.376Z" fill="#092330"/>
<path d="M111.396 261.23L118.426 285.896L103.551 287.663L96.7197 263.315L111.396 261.23Z" fill="#FCC9A7"/>
<path d="M119.32 284.029C118.943 282.917 117.751 282.52 116.937 283.235C115.348 284.645 112.488 286.372 108.258 285.955C103.869 285.518 102.221 282.937 101.585 281.07C101.248 280.097 100.314 279.6 99.4802 280.017L72.8485 293.403C71.2398 294.217 69.9688 295.726 69.3333 297.613C68.7375 299.38 69.9291 301.287 71.5973 301.247L118.406 299.976C120.214 299.936 121.604 298.149 121.445 296.084L119.876 285.955C119.856 285.796 119.836 285.618 119.777 285.459L119.32 284.029Z" fill="#1F252A"/>
<path d="M126.013 58.7611C126.787 59.5158 161.442 68.3533 161.442 68.3533L154.035 88.0342L116.142 85.1744L126.013 58.7611Z" fill="#F7EBE7"/>
<path d="M111.714 63.5075C111.714 63.5075 89.1333 71.7493 85.6182 79.2165C86.8296 89.762 90.5433 99.9102 96.6601 108.589C104.167 119.234 113.442 137.524 111.734 161.376H177.012C177.012 161.376 173.497 94.2701 154.174 68.5122L111.714 63.5075Z" fill="#F7EBE7"/>
<path d="M119.121 74.1523C125.536 72.8416 129.667 66.5858 128.356 60.1711L124.523 41.4037L101.307 46.1502L105.14 64.9176C106.451 71.3322 112.707 75.463 119.121 74.1523Z" fill="#FCC9A7"/>
<path d="M126.112 47.9574C126.112 47.9574 123.669 63.1699 111.833 64.0834C101.466 64.8778 102.459 49.8838 102.459 49.8838L126.112 47.9574Z" fill="#F4BE9A"/>
<path d="M112.766 55.7424L114.812 55.2658C125.079 52.8826 131.474 42.635 129.091 32.3874L126.39 20.6901C124.007 10.4227 113.759 4.02789 103.512 6.41105L101.466 6.88768C91.1987 9.27084 84.8038 19.5184 87.187 29.766L89.888 41.4633C92.2712 51.7308 102.519 58.1255 112.766 55.7424Z" fill="#FCC9A7"/>
<path d="M122.656 37.2531C122.18 38.0673 121.723 39.2986 121.564 41.1654C121.385 43.5287 120.194 45.7728 118.208 47.0836C112.508 50.8569 108.159 41.3044 99.7383 42.9925C99.7383 42.9925 96.4416 43.489 95.7862 47.163C95.1309 50.8172 90.5432 44.4224 89.5304 40.0533C88.5175 35.6842 88.0013 61.6804 108.735 59.476C108.735 59.476 119.201 59.1384 126.251 48.4738C127.025 47.302 127.482 45.9317 127.522 44.5217C127.581 42.4364 127.284 39.2787 125.298 37.0147C124.603 36.1806 123.212 36.2998 122.656 37.2531Z" fill="#1C2226"/>
<path d="M122.676 31.3548C122.676 31.3548 113.72 28.3957 115.229 15.3082C115.229 15.3082 92.9861 36.3594 76.5026 20.9086C76.5026 20.9086 83.8706 18.9425 86.9091 13.8982C92.45 4.70315 108.377 -7.96729 121.127 6.68912C121.127 6.68912 136.638 4.2861 132.189 28.1772L122.676 31.3548Z" fill="#1C2226"/>
<path d="M122.676 31.3548C123.53 35.0089 127.184 37.2928 130.839 36.4587C134.513 35.6047 136.776 31.9506 135.942 28.2964C135.088 24.6422 131.434 22.3584 127.78 23.1925C124.106 24.0464 121.822 27.7006 122.676 31.3548Z" fill="#FCC9A7"/>
<path d="M111.356 73.4175L120.948 73.5962L114.236 87.498L106.987 74.1721L111.356 73.4175Z" fill="#0C2C40"/>
<path d="M129.17 59.3767L116.818 73.7948L124.861 83.0295L139.656 62.6933C139.656 62.6933 135.863 56.5964 129.17 59.3767Z" fill="#FFF7F3"/>
<path d="M111.356 73.4175L104.247 81.4408L99.2419 68.9292C99.2419 68.9292 100.553 63.3089 104.644 64.3814L111.356 73.4175Z" fill="#FFF7F3"/>
<path d="M113.978 83.0097C113.978 83.0097 104.703 107.199 107.007 141.516L116.142 149.857L126.807 139.59L115.308 81.4408L113.978 83.0097Z" fill="#0C2C40"/>
<path d="M131.315 140.444L111.456 146.978L110.145 158.635L136.479 150.771L131.315 140.444Z" fill="#FCC9A7"/>
<path d="M114.415 154.683C114.415 161.495 108.894 167.036 102.062 167.036C95.2501 167.036 89.7093 161.515 89.7093 154.683C89.7093 147.871 95.2302 142.33 102.062 142.33C108.874 142.33 114.415 147.851 114.415 154.683Z" fill="#FCC9A7"/>
<path d="M111.714 161.376H77.1978C77.1978 161.376 56.1664 160.204 54.9153 177.462C53.6641 194.72 88.1205 247.269 93.145 273.622L122.021 271.239L98.8646 196.349L150.579 196.647C154.412 196.666 158.225 196.11 161.84 194.859C171.908 191.364 187.28 186.359 178.899 158.635L111.714 161.376Z" fill="#0C2C40"/>
<path d="M7.58967 100.347H67.2679C69.234 100.347 70.9221 101.717 71.3391 103.644L82.5796 156.351C83.1357 158.933 81.1497 161.376 78.5084 161.376H17.8372C15.8513 161.376 14.1434 159.966 13.766 158.02L3.51846 105.312C3.00211 102.73 4.96819 100.347 7.58967 100.347Z" fill="#B2B2B2"/>
<path d="M4.15394 100.347H63.8123C65.7784 100.347 67.4665 101.717 67.8836 103.644L79.1241 156.351C79.6801 158.933 77.714 161.376 75.0529 161.376H14.4015C12.4156 161.376 10.7076 159.966 10.3303 158.02L0.0827346 105.312C-0.433616 102.73 1.53246 100.347 4.15394 100.347Z" fill="#D1D1D1"/>
<path d="M80.9512 156.868H121.723C122.974 156.868 123.967 157.881 123.967 159.112C123.967 160.363 122.954 161.356 121.723 161.356H80.1568L80.9512 156.868Z" fill="#B2B2B2"/>
<path d="M41.0929 129.481C41.0929 133.076 38.1934 135.975 34.5988 135.975C31.0042 135.975 28.1047 133.056 28.1047 129.481C28.1047 125.887 31.0241 122.987 34.5988 122.987C38.1934 122.987 41.0929 125.887 41.0929 129.481Z" fill="white"/>
<path d="M147.203 87.1008L169.009 122.312L116.818 140.94L123.967 156.391C123.967 156.391 168.592 151.386 190.159 134.764C192.145 133.235 193.138 130.752 192.801 128.27C191.788 120.326 187.458 101.042 169.009 73.6359C165.255 68.0554 157.788 66.3673 151.969 69.7435C145.912 73.2388 143.787 80.984 147.203 87.1008Z" fill="#F7EBE7"/>
<path d="M130.7 135.975L169.009 122.312L149.844 91.3507" stroke="#EADDD8" stroke-width="0.7599" stroke-miterlimit="10" stroke-linecap="round" stroke-linejoin="round"/>
<path d="M104.763 124.318L95.3296 99.4138" stroke="#EADDD8" stroke-width="0.7599" stroke-miterlimit="10" stroke-linecap="round" stroke-linejoin="round"/>
<path d="M131.315 155.338C131.315 155.338 160.628 151.664 175.404 143.204" stroke="#EADDD8" stroke-width="0.7599" stroke-miterlimit="10" stroke-linecap="round" stroke-linejoin="round"/>
</svg>
